HIERARCHY
ROOT newVegas:Hips
{
	OFFSET 0.000000 96.330055 9.825774
	CHANNELS 6 Xposition Yposition Zposition Xrotation Yrotation Zrotation
	JOINT newVegas:Pelvis
	{
		OFFSET 0.000000 0.000000 0.000000
		CHANNELS 3 Xrotation Yrotation Zrotation
		JOINT newVegas:LeftUpLeg
		{
			OFFSET 18.735231 -5.666687 -4.541196
			CHANNELS 3 Xrotation Yrotation Zrotation
			JOINT newVegas:LeftLeg
			{
				OFFSET 2.165257 -31.864662 0.493051
				CHANNELS 3 Xrotation Yrotation Zrotation
				JOINT newVegas:LeftFoot
				{
					OFFSET 2.207560 -31.861769 -4.336291
					CHANNELS 3 Xrotation Yrotation Zrotation
					JOINT newVegas:LeftToeBase
					{
						OFFSET 0.942982 -26.721954 15.023476
						CHANNELS 3 Xrotation Yrotation Zrotation
						End Site
						{
							OFFSET 0.000000 30.670130 0.000000
						}
					}
				}
				JOINT newVegas:Left_PantLeg
				{
					OFFSET 1.281483 -8.977982 -1.108870
					CHANNELS 3 Xrotation Yrotation Zrotation
					End Site
					{
						OFFSET 0.000000 20.683853 0.000000
					}
				}
			}
		}
		JOINT newVegas:RightUpLeg
		{
			OFFSET -18.735231 -5.666687 -4.541196
			CHANNELS 3 Xrotation Yrotation Zrotation
			JOINT newVegas:RightLeg
			{
				OFFSET -2.167511 -31.864510 0.493069
				CHANNELS 3 Xrotation Yrotation Zrotation
				JOINT newVegas:RightFoot
				{
					OFFSET -2.205305 -31.861921 -4.336310
					CHANNELS 3 Xrotation Yrotation Zrotation
					JOINT newVegas:RightToeBase
					{
						OFFSET -0.942982 -26.721954 15.023476
						CHANNELS 3 Xrotation Yrotation Zrotation
						End Site
						{
							OFFSET 0.000000 30.670130 0.000000
						}
					}
				}
				JOINT newVegas:Right_PantLeg
				{
					OFFSET -1.279257 -8.978161 -1.108887
					CHANNELS 3 Xrotation Yrotation Zrotation
					End Site
					{
						OFFSET 0.000000 20.683781 0.000000
					}
				}
			}
		}
	}
	JOINT newVegas:Spine
	{
		OFFSET 0.000000 10.200043 -0.299546
		CHANNELS 3 Xrotation Yrotation Zrotation
		JOINT newVegas:Spine1
		{
			OFFSET 0.000000 11.900047 -1.516603
			CHANNELS 3 Xrotation Yrotation Zrotation
			JOINT newVegas:Spine2
			{
				OFFSET 0.000000 13.600052 -2.842519
				CHANNELS 3 Xrotation Yrotation Zrotation
				JOINT newVegas:Neck
				{
					OFFSET 0.000000 9.624100 -2.890091
					CHANNELS 3 Xrotation Yrotation Zrotation
					JOINT newVegas:Head
					{
						OFFSET 0.000000 14.068771 -1.351861
						CHANNELS 3 Xrotation Yrotation Zrotation
						JOINT newVegas:Hair_Back
						{
							OFFSET 0.000000 3.231888 -17.524775
							CHANNELS 3 Xrotation Yrotation Zrotation
							End Site
							{
								OFFSET 0.000000 19.849899 0.000000
							}
						}
						JOINT newVegas:Hair_Front
						{
							OFFSET 0.000000 31.260452 4.573765
							CHANNELS 3 Xrotation Yrotation Zrotation
							JOINT newVegas:Hair_Front1
							{
								OFFSET -0.000000 2.284073 11.993284
								CHANNELS 3 Xrotation Yrotation Zrotation
								JOINT newVegas:Hair_Front2
								{
									OFFSET -0.000000 2.284073 11.993282
									CHANNELS 3 Xrotation Yrotation Zrotation
									End Site
									{
										OFFSET 0.000000 12.208847 0.000000
									}
								}
							}
						}
						JOINT newVegas:Jowel
						{
							OFFSET 0.000000 -7.458237 6.864121
							CHANNELS 3 Xrotation Yrotation Zrotation
							End Site
							{
								OFFSET 0.000000 19.849899 0.000000
							}
						}
					}
				}
				JOINT newVegas:LeftShoulder
				{
					OFFSET 15.263037 10.923431 -0.547705
					CHANNELS 3 Xrotation Yrotation Zrotation
					JOINT newVegas:LeftArm
					{
						OFFSET 25.438639 -2.830658 -13.032501
						CHANNELS 3 Xrotation Yrotation Zrotation
						JOINT newVegas:LeftForeArm
						{
							OFFSET 29.593842 0.000000 -4.673203
							CHANNELS 3 Xrotation Yrotation Zrotation
							JOINT newVegas:LeftHand
							{
								OFFSET 27.832886 0.000000 0.954267
								CHANNELS 3 Xrotation Yrotation Zrotation
								JOINT newVegas:LeftHandThumb1
								{
									OFFSET 4.767456 -2.676666 6.397403
									CHANNELS 3 Xrotation Yrotation Zrotation
									JOINT newVegas:LeftHandThumb2
									{
										OFFSET 6.625809 -0.223526 2.471421
										CHANNELS 3 Xrotation Yrotation Zrotation
										JOINT newVegas:LeftHandThumb3
										{
											OFFSET 6.481201 0.059357 1.536795
											CHANNELS 3 Xrotation Yrotation Zrotation
											End Site
											{
												OFFSET 0.000000 6.661179 0.000000
											}
										}
									}
								}
								JOINT newVegas:LeftHandIndex1
								{
									OFFSET 18.761932 0.178406 4.531118
									CHANNELS 3 Xrotation Yrotation Zrotation
									JOINT newVegas:LeftHandIndex2
									{
										OFFSET 3.171219 -0.350479 0.097670
										CHANNELS 3 Xrotation Yrotation Zrotation
										JOINT newVegas:LeftHandIndex3
										{
											OFFSET 3.807625 -0.034592 0.457391
											CHANNELS 3 Xrotation Yrotation Zrotation
											End Site
											{
												OFFSET 0.000000 3.835159 0.000000
											}
										}
									}
								}
								JOINT newVegas:LeftHandMiddle1
								{
									OFFSET 18.461426 0.243439 -0.695649
									CHANNELS 3 Xrotation Yrotation Zrotation
									JOINT newVegas:LeftHandMiddle2
									{
										OFFSET 3.308960 -0.304459 -0.112251
										CHANNELS 3 Xrotation Yrotation Zrotation
										JOINT newVegas:LeftHandMiddle3
										{
											OFFSET 4.584320 0.057678 -0.330443
											CHANNELS 3 Xrotation Yrotation Zrotation
											End Site
											{
												OFFSET 0.000000 4.596573 0.000000
											}
										}
									}
								}
								JOINT newVegas:LeftHandRing1
								{
									OFFSET 17.563904 -0.015564 -4.860666
									CHANNELS 3 Xrotation Yrotation Zrotation
									JOINT newVegas:LeftHandRing2
									{
										OFFSET 2.582436 -0.710159 -0.544994
										CHANNELS 3 Xrotation Yrotation Zrotation
										JOINT newVegas:LeftHandRing3
										{
											OFFSET 3.050346 0.119141 -0.884829
											CHANNELS 3 Xrotation Yrotation Zrotation
											End Site
											{
												OFFSET 0.000000 3.178314 0.000000
											}
										}
									}
								}
								JOINT newVegas:LeftHandPinky1
								{
									OFFSET 15.713013 -1.058273 -8.049927
									CHANNELS 3 Xrotation Yrotation Zrotation
									JOINT newVegas:LeftHandPinky2
									{
										OFFSET 2.262558 -0.308899 -1.109793
										CHANNELS 3 Xrotation Yrotation Zrotation
										JOINT newVegas:LeftHandPinky3
										{
											OFFSET 2.240669 -0.150864 -1.296448
											CHANNELS 3 Xrotation Yrotation Zrotation
											End Site
											{
												OFFSET 0.000000 2.593094 0.000000
											}
										}
									}
								}
							}
							JOINT newVegas:Left_Sleeve
							{
								OFFSET 0.247482 -0.649780 0.586459
								CHANNELS 3 Xrotation Yrotation Zrotation
								End Site
								{
									OFFSET 0.000000 15.991226 0.000000
								}
							}
							JOINT newVegas:Left_CapeC
							{
								OFFSET 15.944374 -8.608810 -6.393338
								CHANNELS 3 Xrotation Yrotation Zrotation
								JOINT newVegas:Left_CapeC1
								{
									OFFSET 0.000000 -8.688515 0.000000
									CHANNELS 3 Xrotation Yrotation Zrotation
									End Site
									{
										OFFSET 0.000000 8.688515 0.000000
									}
								}
							}
						}
						JOINT newVegas:Left_CapeB
						{
							OFFSET 24.694458 -8.608810 -11.066542
							CHANNELS 3 Xrotation Yrotation Zrotation
							JOINT newVegas:Left_CapeB1
							{
								OFFSET 0.000008 -8.688515 0.000000
								CHANNELS 3 Xrotation Yrotation Zrotation
								End Site
								{
									OFFSET 0.000000 8.688515 0.000000
								}
							}
						}
						JOINT newVegas:Left_CapeA
						{
							OFFSET 3.431450 -8.608810 -11.066542
							CHANNELS 3 Xrotation Yrotation Zrotation
							JOINT newVegas:Left_CapeA1
							{
								OFFSET 0.000000 -8.688515 0.000000
								CHANNELS 3 Xrotation Yrotation Zrotation
								End Site
								{
									OFFSET 0.000000 8.688515 0.000000
								}
							}
						}
					}
				}
				JOINT newVegas:RightShoulder
				{
					OFFSET -15.263037 10.923431 -0.547705
					CHANNELS 3 Xrotation Yrotation Zrotation
					JOINT newVegas:RightArm
					{
						OFFSET -25.438639 -2.830658 -13.032501
						CHANNELS 3 Xrotation Yrotation Zrotation
						JOINT newVegas:RightForeArm
						{
							OFFSET -29.593842 0.000000 -4.673203
							CHANNELS 3 Xrotation Yrotation Zrotation
							JOINT newVegas:RightHand
							{
								OFFSET -27.832886 0.000000 0.954267
								CHANNELS 3 Xrotation Yrotation Zrotation
								JOINT newVegas:RightHandThumb1
								{
									OFFSET -4.767456 -2.676666 6.397403
									CHANNELS 3 Xrotation Yrotation Zrotation
									JOINT newVegas:RightHandThumb2
									{
										OFFSET -6.625809 -0.223526 2.471421
										CHANNELS 3 Xrotation Yrotation Zrotation
										JOINT newVegas:RightHandThumb3
										{
											OFFSET -6.481201 0.059357 1.536795
											CHANNELS 3 Xrotation Yrotation Zrotation
											End Site
											{
												OFFSET 0.000000 6.661179 0.000000
											}
										}
									}
								}
								JOINT newVegas:RightHandIndex1
								{
									OFFSET -18.761932 0.178406 4.531118
									CHANNELS 3 Xrotation Yrotation Zrotation
									JOINT newVegas:RightHandIndex2
									{
										OFFSET -3.171219 -0.350479 0.097670
										CHANNELS 3 Xrotation Yrotation Zrotation
										JOINT newVegas:RightHandIndex3
										{
											OFFSET -3.807625 -0.034592 0.457391
											CHANNELS 3 Xrotation Yrotation Zrotation
											End Site
											{
												OFFSET 0.000000 3.835159 0.000000
											}
										}
									}
								}
								JOINT newVegas:RightHandMiddle1
								{
									OFFSET -18.461426 0.243439 -0.695648
									CHANNELS 3 Xrotation Yrotation Zrotation
									JOINT newVegas:RightHandMiddle2
									{
										OFFSET -3.308960 -0.304459 -0.112251
										CHANNELS 3 Xrotation Yrotation Zrotation
										JOINT newVegas:RightHandMiddle3
										{
											OFFSET -4.584320 0.057678 -0.330443
											CHANNELS 3 Xrotation Yrotation Zrotation
											End Site
											{
												OFFSET 0.000000 4.596573 0.000000
											}
										}
									}
								}
								JOINT newVegas:RightHandRing1
								{
									OFFSET -17.563904 -0.015564 -4.860666
									CHANNELS 3 Xrotation Yrotation Zrotation
									JOINT newVegas:RightHandRing2
									{
										OFFSET -2.582436 -0.710159 -0.544992
										CHANNELS 3 Xrotation Yrotation Zrotation
										JOINT newVegas:RightHandRing3
										{
											OFFSET -3.050346 0.119141 -0.884830
											CHANNELS 3 Xrotation Yrotation Zrotation
											End Site
											{
												OFFSET 0.000000 3.178329 0.000000
											}
										}
									}
								}
								JOINT newVegas:RightHandPinky1
								{
									OFFSET -15.713013 -1.058273 -8.049929
									CHANNELS 3 Xrotation Yrotation Zrotation
									JOINT newVegas:RightHandPinky2
									{
										OFFSET -2.262558 -0.308899 -1.109791
										CHANNELS 3 Xrotation Yrotation Zrotation
										JOINT newVegas:RightHandPinky3
										{
											OFFSET -2.240669 -0.150864 -1.296448
											CHANNELS 3 Xrotation Yrotation Zrotation
											End Site
											{
												OFFSET 0.000000 2.593094 0.000000
											}
										}
									}
								}
							}
							JOINT newVegas:Right_CapeC
							{
								OFFSET -15.944374 -8.608810 -6.393338
								CHANNELS 3 Xrotation Yrotation Zrotation
								JOINT newVegas:Right_CapeC1
								{
									OFFSET 0.000000 -8.688515 0.000000
									CHANNELS 3 Xrotation Yrotation Zrotation
									End Site
									{
										OFFSET 0.000000 8.688515 0.000000
									}
								}
							}
							JOINT newVegas:Right_Sleeve
							{
								OFFSET -0.247482 -0.649963 0.586505
								CHANNELS 3 Xrotation Yrotation Zrotation
								End Site
								{
									OFFSET 0.000000 15.991287 0.000000
								}
							}
						}
						JOINT newVegas:Right_CapeA
						{
							OFFSET -3.431450 -8.608810 -11.066542
							CHANNELS 3 Xrotation Yrotation Zrotation
							JOINT newVegas:Right_CapeA1
							{
								OFFSET 0.000000 -8.688515 0.000000
								CHANNELS 3 Xrotation Yrotation Zrotation
								End Site
								{
									OFFSET 0.000000 8.688515 0.000000
								}
							}
						}
						JOINT newVegas:Right_CapeB
						{
							OFFSET -24.694321 -8.608810 -11.066542
							CHANNELS 3 Xrotation Yrotation Zrotation
							JOINT newVegas:Right_CapeB1
							{
								OFFSET -0.000015 -8.688515 0.000002
								CHANNELS 3 Xrotation Yrotation Zrotation
								End Site
								{
									OFFSET 0.000000 8.688515 0.000000
								}
							}
						}
					}
				}
				JOINT newVegas:Left_Collar
				{
					OFFSET 18.625118 8.655487 8.828113
					CHANNELS 3 Xrotation Yrotation Zrotation
					JOINT newVegas:Left_Collar1
					{
						OFFSET 14.783401 10.540359 -1.259481
						CHANNELS 3 Xrotation Yrotation Zrotation
						End Site
						{
							OFFSET 0.000000 18.199844 0.000000
						}
					}
				}
				JOINT newVegas:Collar_Back
				{
					OFFSET 0.000000 15.630692 -20.132616
					CHANNELS 3 Xrotation Yrotation Zrotation
					End Site
					{
						OFFSET 0.000000 22.523010 0.000000
					}
				}
				JOINT newVegas:Left_Peck
				{
					OFFSET 17.239555 -5.132629 25.482586
					CHANNELS 3 Xrotation Yrotation Zrotation
					End Site
					{
						OFFSET 0.000000 22.523026 0.000000
					}
				}
				JOINT newVegas:Right_Peck
				{
					OFFSET -17.239599 -5.132195 25.482594
					CHANNELS 3 Xrotation Yrotation Zrotation
					End Site
					{
						OFFSET 0.000000 22.523018 0.000000
					}
				}
				JOINT newVegas:Right_Collar
				{
					OFFSET -18.625099 8.655807 8.828094
					CHANNELS 3 Xrotation Yrotation Zrotation
					JOINT newVegas:Right_Collar1
					{
						OFFSET -14.783405 10.539993 -1.259501
						CHANNELS 3 Xrotation Yrotation Zrotation
						End Site
						{
							OFFSET 0.000000 18.199646 0.000000
						}
					}
				}
			}
		}
		JOINT newVegas:Belly
		{
			OFFSET 0.000000 -6.540390 9.014252
			CHANNELS 3 Xrotation Yrotation Zrotation
			End Site
			{
				OFFSET 0.000000 11.566666 0.000000
			}
		}
	}
	JOINT newVegas:ElvisFacialAnim_Joint
	{
		OFFSET 1.000000 -95.330055 -8.825774
		CHANNELS 3 Xrotation Yrotation Zrotation
		End Site
		{
			OFFSET 0.000000 35.315800 0.000000
		}
	}
}
MOTION
Frames: 4
Frame Time: 0.016667
-0.343325 94.080986 4.826164 -3.657404 -0.302087 -2.936488 -0.000000 -0.000000 0.000000 -7.302768 13.767621 5.440486 26.826750 11.448521 2.224263 -16.280987 3.824389 -5.386233 -0.000000 0.000002 0.000000 -0.000001 -0.000001 -0.000000 -10.169558 -4.181977 1.990597 16.999917 -11.093103 -3.541788 -1.990656 -13.338231 4.202598 -0.000000 -0.000000 0.000000 0.000000 -0.000002 -0.000001 4.756592 1.379445 0.108864 2.572229 0.188490 0.804270 2.570295 0.195339 0.808666 -0.537195 -0.020656 -0.082194 -0.537198 -0.020655 -0.082194 -0.000000 0.000000 -0.000000 -0.537263 -0.020657 -0.082194 -0.537052 -0.020654 -0.082194 -0.000001 -0.000000 0.000000 -0.000000 0.000000 -0.000000 0.348350 0.827242 -4.748618 -14.573552 -28.744284 -80.341357 0.000005 4.687011 -0.000002 12.015584 -7.668369 -5.606907 10.256634 7.340009 -14.328396 0.071964 3.965315 -2.873154 -0.000001 0.000000 -0.000000 1.302582 5.298127 -17.437654 3.466018 4.798137 -26.305703 -0.000002 0.000000 -0.000000 0.020278 2.152160 -20.487146 -2.222182 -0.361231 -37.395463 0.000001 0.000001 0.000003 -2.946503 -6.704970 -13.362458 -13.183085 6.375355 -59.987584 0.000000 0.000000 -0.000000 -8.483270 -15.226228 -24.181209 -24.918103 7.943215 -52.789907 0.000000 -0.000000 0.000000 -0.000002 0.000000 -0.000001 -0.000002 0.000000 -0.000001 -0.000002 0.000000 -0.000001 0.000001 0.000000 -0.000001 0.000001 0.000000 -0.000001 0.000001 0.000000 -0.000001 0.000001 0.000000 -0.000001 0.341723 -1.804781 5.898526 -15.959275 10.669184 77.351742 -0.000002 -2.620997 -0.000003 33.622836 9.822602 0.461645 9.315298 -9.775853 13.290553 -0.348994 -1.417294 1.364402 0.000000 0.000000 -0.000000 3.125015 -8.461088 21.965199 2.737942 -4.972835 20.152236 -0.000003 -0.000002 -0.000001 2.393697 -6.246092 26.064246 -1.883568 0.865941 29.542160 0.000000 0.000001 0.000003 -0.507551 1.258901 20.047044 -12.064604 -3.753145 50.479063 0.000000 0.000000 -0.000000 -8.873887 11.394878 31.884266 -21.060543 -6.937537 41.412598 -0.000000 0.000001 -0.000000 0.000001 0.000001 -0.000001 0.000001 0.000001 -0.000001 0.000001 0.000001 0.000000 -0.000001 -0.000000 0.000000 -0.000001 -0.000000 0.000000 -0.000001 -0.000000 0.000000 -0.000001 -0.000000 0.000000 -0.000000 -0.000000 -0.000000 -0.000000 -0.000000 -0.000000 -0.000000 -0.000000 -0.000000 -0.000000 -0.000000 -0.000000 -0.000000 -0.000000 -0.000000 -0.000000 -0.000000 -0.000000 -0.000000 -0.000000 -0.000000 -0.000000 0.000000 0.000000 -0.000000 0.000000 0.000000 
-0.342545 94.079834 4.805330 -3.644235 -0.341759 -2.948233 0.000000 -0.000000 -0.000000 -7.343359 13.794299 5.479684 26.862099 11.442459 2.180583 -16.292622 3.817897 -5.362871 -0.000000 -0.000000 -0.000000 -0.000001 0.000000 -0.000000 -10.204614 -4.181570 1.987905 16.977788 -11.092929 -3.517793 -1.952859 -13.299657 4.179380 0.000000 0.000002 -0.000000 0.000000 0.000001 -0.000000 4.726098 1.398328 0.117845 2.581958 0.191239 0.804231 2.580008 0.197996 0.808711 -0.547818 -0.022768 -0.077265 -0.547818 -0.022768 -0.077264 0.000000 0.000000 -0.000000 -0.547746 -0.022768 -0.077265 -0.547963 -0.022768 -0.077265 0.000000 -0.000000 -0.000000 0.000000 0.000000 -0.000000 0.347454 0.837247 -4.741812 -14.462360 -28.598048 -80.303511 -0.000002 4.805830 -0.000000 12.197134 -7.639842 -5.671559 10.258052 7.380789 -14.317079 0.071963 3.965315 -2.873156 0.000001 0.000000 -0.000000 1.303232 5.311935 -17.382703 3.466020 4.798157 -26.305710 -0.000001 -0.000000 0.000000 0.040431 2.197820 -20.389149 -2.221335 -0.362862 -37.372490 0.000001 -0.000002 -0.000002 -2.877722 -6.627874 -13.205793 -13.178588 6.361293 -59.938803 0.000000 -0.000000 0.000001 -8.351259 -15.141334 -23.964567 -24.899383 7.911412 -52.728811 -0.000001 0.000000 -0.000000 0.000003 -0.000000 0.000000 0.000003 -0.000000 0.000000 0.000003 -0.000000 0.000000 -0.000004 0.000000 -0.000001 -0.000004 0.000000 -0.000001 -0.000004 0.000000 -0.000001 -0.000004 0.000000 -0.000001 0.343148 -1.818726 5.908469 -15.912310 10.601610 77.346339 0.000003 -2.654371 -0.000001 33.633156 9.773400 0.446047 9.324439 -9.759843 13.315400 -0.348998 -1.417283 1.364390 -0.000000 0.000000 -0.000000 3.111554 -8.427839 22.002058 2.737922 -4.972814 20.152176 0.000002 -0.000001 0.000001 2.382376 -6.223624 26.087257 -1.883566 0.865952 29.542030 0.000002 -0.000001 -0.000001 -0.514496 1.268608 20.053039 -12.064564 -3.753100 50.478837 -0.000001 -0.000001 -0.000001 -8.872856 11.396808 31.875882 -21.060537 -6.937528 41.412591 -0.000001 -0.000003 -0.000000 -0.000001 -0.000000 0.000000 -0.000001 -0.000000 0.000000 -0.000001 -0.000000 0.000001 -0.000000 0.000001 0.000000 -0.000000 0.000001 0.000000 -0.000000 0.000001 0.000000 -0.000000 0.000001 0.000000 -0.000001 -0.000000 -0.000000 -0.000001 -0.000000 -0.000000 -0.000001 -0.000000 -0.000000 -0.000001 -0.000000 -0.000000 -0.000001 -0.000000 -0.000000 -0.000001 -0.000000 -0.000000 -0.000001 -0.000000 -0.000000 -0.000000 -0.000000 -0.000000 0.000000 -0.000000 -0.000000 
-0.343047 94.078491 4.784807 -3.638471 -0.387303 -2.961124 0.000000 0.000000 -0.000000 -7.374979 13.819939 5.517224 26.899532 11.436698 2.142137 -16.307348 3.819038 -5.343565 0.000000 -0.000002 -0.000000 -0.000000 -0.000000 0.000000 -10.235114 -4.178535 1.988756 16.958221 -11.092243 -3.496999 -1.915328 -13.257108 4.157034 0.000000 0.000002 0.000000 0.000000 0.000001 -0.000000 4.710127 1.423003 0.126792 2.590687 0.194722 0.803344 2.588720 0.201398 0.807921 -0.557662 -0.025480 -0.071860 -0.557631 -0.025481 -0.071859 0.000000 0.000000 -0.000000 -0.557674 -0.025476 -0.071861 -0.557747 -0.025487 -0.071859 -0.000000 0.000000 0.000000 0.000000 0.000000 -0.000000 0.346954 0.834367 -4.735711 -14.372371 -28.441669 -80.266600 -0.000004 4.925016 0.000019 12.333226 -7.619750 -5.737093 10.259085 7.423160 -14.304278 0.071961 3.965316 -2.873154 0.000000 -0.000000 0.000001 1.305066 5.329067 -17.326286 3.466023 4.798133 -26.305695 0.000003 -0.000000 0.000000 0.064044 2.251749 -20.273033 -2.220035 -0.365303 -37.337851 -0.000000 -0.000001 -0.000001 -2.796399 -6.538245 -13.009547 -13.171756 6.339991 -59.864928 -0.000001 0.000001 -0.000001 -8.192413 -15.045069 -23.688621 -24.870881 7.863159 -52.636026 0.000000 -0.000000 -0.000001 0.000000 0.000000 0.000001 0.000000 0.000000 0.000001 0.000000 0.000000 0.000001 -0.000001 -0.000001 0.000000 -0.000001 -0.000001 0.000000 -0.000001 -0.000001 0.000000 -0.000001 -0.000001 0.000000 0.344002 -1.820554 5.917507 -15.864192 10.551470 77.340841 -0.000008 -2.669165 0.000056 33.632162 9.746943 0.435282 9.331667 -9.743989 13.336200 -0.348995 -1.417293 1.364393 0.000002 0.000000 -0.000000 3.096597 -8.384768 22.069817 2.737932 -4.972831 20.152140 -0.000002 -0.000000 0.000001 2.368194 -6.194253 26.129621 -1.883560 0.865969 29.541883 0.000000 -0.000000 -0.000002 -0.524707 1.282066 20.064142 -12.064536 -3.753050 50.478633 0.000000 -0.000000 -0.000001 -8.871889 11.401965 31.861378 -21.060547 -6.937549 41.412605 0.000000 -0.000000 0.000000 -0.000000 -0.000000 -0.000001 -0.000000 -0.000000 -0.000001 -0.000000 0.000000 0.000000 0.000000 -0.000001 -0.000001 0.000000 -0.000001 -0.000001 0.000000 -0.000001 -0.000001 0.000000 -0.000001 -0.000000 0.000000 0.000000 0.000000 0.000000 0.000000 0.000000 0.000000 0.000000 0.000000 0.000000 0.000000 0.000000 0.000000 0.000000 0.000000 0.000000 0.000000 0.000000 0.000000 0.000000 0.000000 -0.000000 0.000000 -0.000000 0.000000 0.000000 -0.000000 
-0.343771 94.076897 4.764764 -3.639953 -0.433375 -2.973245 0.000001 -0.000000 -0.000000 -7.397430 13.841064 5.547905 26.936646 11.431971 2.112280 -16.323001 3.827729 -5.328409 0.000000 -0.000000 0.000000 -0.000000 0.000001 0.000000 -10.261779 -4.173822 1.991000 16.946109 -11.091424 -3.480877 -1.881420 -13.214919 4.138246 -0.000000 -0.000000 -0.000000 0.000000 -0.000001 -0.000000 4.709129 1.449805 0.135860 2.598473 0.198443 0.801674 2.596480 0.205050 0.806348 -0.566337 -0.028530 -0.066279 -0.566339 -0.028530 -0.066279 0.000000 0.000000 -0.000000 -0.566334 -0.028527 -0.066280 -0.566266 -0.028532 -0.066278 0.000000 0.000000 0.000000 0.000000 0.000000 -0.000000 0.346655 0.819095 -4.726600 -14.299367 -28.278643 -80.233993 0.000004 5.039360 0.000007 12.417818 -7.604019 -5.802177 10.259297 7.462089 -14.291013 0.071964 3.965315 -2.873153 0.000000 -0.000000 -0.000000 1.307282 5.346854 -17.270861 3.466015 4.798131 -26.305702 0.000001 0.000002 -0.000002 0.088495 2.308499 -20.143691 -2.218340 -0.368461 -37.292607 -0.000001 -0.000003 -0.000003 -2.708872 -6.444391 -12.781955 -13.162765 6.312166 -59.768363 -0.000000 0.000000 0.000000 -8.017616 -14.946821 -23.365444 -24.833444 7.800029 -52.514470 0.000001 0.000001 0.000000 0.000001 0.000000 -0.000001 0.000001 0.000000 -0.000001 0.000001 0.000000 -0.000001 -0.000001 -0.000001 -0.000000 -0.000001 -0.000001 -0.000000 -0.000001 -0.000001 -0.000000 -0.000001 -0.000001 -0.000000 0.344245 -1.806889 5.926632 -15.813987 10.511616 77.332385 0.000000 -2.670129 0.000002 33.625588 9.738561 0.424885 9.337197 -9.729890 13.352808 -0.348995 -1.417290 1.364386 0.000001 -0.000000 0.000000 3.080488 -8.333320 22.164693 2.737921 -4.972826 20.152087 -0.000002 -0.000001 -0.000002 2.352014 -6.159638 26.190068 -1.883542 0.865965 29.541733 -0.000000 -0.000001 0.000000 -0.536914 1.297283 20.082170 -12.064501 -3.752976 50.478380 -0.000001 0.000002 0.000000 -8.870211 11.407419 31.844773 -21.060538 -6.937520 41.412591 -0.000001 -0.000000 -0.000003 0.000000 0.000000 0.000000 0.000000 0.000000 0.000000 0.000000 0.000000 0.000001 0.000000 -0.000001 -0.000000 0.000000 -0.000001 -0.000000 0.000000 -0.000001 -0.000000 0.000000 -0.000001 -0.000001 -0.000001 0.000000 0.000000 -0.000000 0.000000 0.000000 -0.000001 0.000000 0.000000 -0.000001 0.000000 0.000000 -0.000001 0.000000 0.000000 -0.000001 0.000000 0.000000 -0.000000 0.000000 0.000000 -0.000000 -0.000000 -0.000000 0.000001 0.000000 -0.000000 
